<svg preserveAspectRatio="none" width="100%" height="100%" overflow="visible" style="display: block;" viewBox="0 0 17.0435 17.7419" fill="none" xmlns="http://www.w3.org/2000/svg">
<g id="Clean">
<path id="Vector" d="M12.3919 16.7558V11.2439H10.9476V16.7441C10.8245 17.4954 10.1217 17.7419 10.1217 17.7419H10.9642H12.3728H13.2153C13.2153 17.7419 12.5204 17.4979 12.3919 16.7558Z" fill="black"/>
<path id="Vector_2" d="M17.0434 9.50293V8.66041C17.0434 8.66041 16.7998 9.35295 16.0607 9.48332H15.18V7.18515C15.18 5.84565 14.5497 4.77131 13.3572 4.07828C13.07 3.91164 12.7475 3.76657 12.3922 3.64257V2.59861C12.3922 1.1655 11.2051 0 9.74602 0L7.77084 0C6.04611 0 4.6429 1.37675 4.6429 3.06864V3.4426C4.9703 3.28674 5.48836 3.08432 6.09022 3.00933C6.12306 2.14133 6.86314 1.44438 7.77084 1.44438H9.74602C10.4087 1.44438 10.9478 1.96244 10.9478 2.5991V3.28723C10.2371 3.17107 9.44068 3.11177 8.55993 3.11177C4.55125 3.11177 1.85804 4.74877 1.85804 7.18564V9.48381H0.983179C0.244079 9.35295 0.000490119 8.66041 0.000490119 8.66041V9.48332H0L0 10.9277H0.000490119V11.7545C0.000490119 11.7545 0.24751 11.0493 1.0018 10.9277H1.85853V14.31C1.72473 15.0432 1.03758 15.2854 1.03758 15.2854H1.85853V15.2883H3.30291V15.2854H4.13122C4.13122 15.2854 3.42348 15.0374 3.3034 14.2801L3.30242 14.3326V10.9277H4.64339V17.31L4.63506 16.7366C4.51547 17.4943 3.80725 17.7418 3.80725 17.7418H4.64976V17.7281H6.05886V17.7418H6.90088C6.90088 17.7418 6.23677 17.5076 6.08728 16.8028V10.9272H13.7356V14.3169C13.5989 15.0442 12.9161 15.2849 12.9161 15.2849H16.0097C16.0097 15.2849 15.302 15.0369 15.1819 14.2796L15.1795 14.4345V10.9272H16.0421C16.7964 11.0488 17.0434 11.754 17.0434 11.754V10.9115H17.0385V9.50293H17.0434ZM13.7361 9.48332H12.3927V5.63539C12.1883 5.31878 11.2399 5.09185 10.9483 5.0992V9.48381H3.30242V7.18564C3.30242 6.44752 3.7945 5.81625 4.64339 5.35701V9.09907H6.08777V4.82523C6.80923 4.65123 7.64341 4.55566 8.56042 4.55566C11.9947 4.55566 13.7361 5.44033 13.7361 7.18564V9.48381V9.48332Z" fill="black"/>
</g>
</svg>
