<svg preserveAspectRatio="none" width="100%" height="100%" overflow="visible" style="display: block;" viewBox="0 0 19.5163 16.8437" fill="none" xmlns="http://www.w3.org/2000/svg">
<g id="Group 4">
<path id="Vector" fill-rule="evenodd" clip-rule="evenodd" d="M9.27339 14.3065V16.8029C8.99967 16.8287 8.72225 16.8435 8.43743 16.8435C3.79156 16.8435 0.000144217 13.0582 0.000144217 8.41992C0.000144217 3.7816 3.79156 3.28116e-05 8.43743 3.28116e-05C8.71855 3.28116e-05 8.99967 0.0148045 9.27339 0.0406551V2.53708C8.99967 2.49646 8.72225 2.47799 8.43743 2.47799C5.15647 2.47799 2.48213 5.15167 2.48213 8.41992C2.48213 11.6882 5.16017 14.3618 8.43743 14.3618C8.71855 14.3618 8.99967 14.3397 9.27339 14.3028V14.3065Z" fill="black"/>
<path id="Vector_2" fill-rule="evenodd" clip-rule="evenodd" d="M12.8693 7.13497H17.7409V9.70894H12.8693C13.4612 12.3679 15.8433 14.3657 18.6804 14.3657C18.9615 14.3657 19.2426 14.3436 19.5163 14.3066V16.8031C19.2389 16.8289 18.9615 16.8437 18.6804 16.8437C14.0308 16.8437 10.2468 13.0584 10.2468 8.4238C10.2468 3.78917 14.0308 0.000219007 18.6804 0.000219007C18.9615 0.000219007 19.2426 0.0149907 19.5163 0.0408413V2.53726C19.2389 2.49664 18.9615 2.47818 18.6804 2.47818C15.8433 2.47818 13.4575 4.47605 12.8693 7.13497Z" fill="black"/>
</g>
</svg>
