<svg preserveAspectRatio="none" width="100%" height="100%" overflow="visible" style="display: block;" viewBox="0 0 50.107 50.0581" fill="none" xmlns="http://www.w3.org/2000/svg">
<g id="Group 29">
<path id="Vector" d="M25.0535 50.0581C11.2368 50.0581 0 38.8323 0 25.0291C0 11.2258 11.2368 0 25.0535 0C38.8703 0 50.107 11.2258 50.107 25.0291C50.107 38.8323 38.8703 50.0581 25.0535 50.0581ZM25.0535 1.32146C11.9571 1.32146 1.30964 11.9585 1.30964 25.0422C1.30964 38.1258 11.9571 48.7629 25.0535 48.7629C38.1499 48.7629 48.7974 38.1258 48.7974 25.0422C48.7974 11.9585 38.1499 1.32146 25.0535 1.32146Z" fill="black"/>
<path id="Vector_2" d="M25.7081 15.9629H24.3984V34.123H25.7081V15.9629Z" fill="black"/>
<path id="Vector_3" d="M34.1427 24.3887H15.9648V25.697H34.1427V24.3887Z" fill="black"/>
</g>
</svg>
