<svg preserveAspectRatio="none" width="100%" height="100%" overflow="visible" style="display: block;" viewBox="0 0 53 53" fill="none" xmlns="http://www.w3.org/2000/svg">
<path id="Vector" d="M46.5943 0H6.40608C2.87399 0 0 2.87399 0 6.40608V46.5939C0 50.1264 2.87399 53 6.40608 53H46.5939C50.1264 53 53 50.126 53 46.5939V6.40608C53 2.87358 50.126 0 46.5939 0H46.5943ZM6.40608 3.62928H46.5939C48.1251 3.62928 49.3707 4.87493 49.3707 6.40608V18.7001H22.7475L33.9068 8.3296H28.5721L15.4696 20.5111L27.066 31.2953H3.62928V6.40608C3.62928 4.87493 4.87493 3.62928 6.40608 3.62928ZM46.5943 49.3711H6.40608C4.87493 49.3711 3.62928 48.1255 3.62928 46.5943V34.9246H27.2628L16.1035 45.295H21.4382L34.5407 33.1136L22.9443 22.3293H49.3715V46.5939C49.3715 48.1251 48.1259 49.3707 46.5947 49.3707L46.5943 49.3711Z" fill="white"/>
</svg>
