<svg preserveAspectRatio="none" width="100%" height="100%" overflow="visible" style="display: block;" viewBox="0 0 32 50" fill="none" xmlns="http://www.w3.org/2000/svg">
<path id="Vector" fill-rule="evenodd" clip-rule="evenodd" d="M27.9878 0C21.2844 0 15.2031 2.70671 10.7436 7.09541V0H0V50H10.7436V42.9046C15.2031 47.2933 21.2844 50 27.9878 50H32V46.9611H27.9878C20.9699 46.9611 14.7208 43.576 10.7436 38.3392C9.50634 36.7067 8.4858 34.8975 7.73788 32.9541V46.9541H2.99869V3.03887H7.73788V17.0389C8.4858 15.0954 9.50634 13.2862 10.7436 11.6537C14.7208 6.41696 20.9699 3.0318 27.9878 3.0318H28.9943V7.82332H27.9878C18.6212 7.82332 11.0022 15.5265 11.0022 24.9965C11.0022 34.4664 18.6212 42.1696 27.9878 42.1696H32V31.3074H27.9878C24.5487 31.3074 21.7457 28.4806 21.7457 24.9965C21.7457 21.5124 24.5417 18.6855 27.9878 18.6855H32V15.6466H27.9878C22.8921 15.6466 18.7401 19.8375 18.7401 24.9894C18.7401 30.1413 22.8851 34.3322 27.9878 34.3322H28.9943V39.1237H27.9878C20.2779 39.1237 14.0079 32.7845 14.0079 24.9894C14.0079 17.1943 20.2779 10.8551 27.9878 10.8551H32V0H27.9878Z" fill="white"/>
</svg>
