<svg preserveAspectRatio="none" width="100%" height="100%" overflow="visible" style="display: block;" viewBox="0 0 61 49" fill="none" xmlns="http://www.w3.org/2000/svg">
<path id="Vector" d="M30.5 0C13.6812 0 0 10.9865 0 24.5C0 38.0135 13.6812 49 30.5 49C47.3188 49 61 38.0135 61 24.5C61 10.9865 47.3188 0 30.5 0ZM29.152 3.99859V13.1745C26.4173 13.136 23.7678 12.9742 21.2733 12.7123C23.8453 8.86777 27.0603 5.79371 29.152 3.99859ZM29.152 15.6939V23.2442H17.2449C17.4773 20.355 18.4689 17.5969 19.8401 15.0852C22.7685 15.4473 25.9138 15.6553 29.1598 15.7016L29.152 15.6939ZM29.152 25.7558V33.3061C25.906 33.3524 22.7607 33.5604 19.8324 33.9225C18.4689 31.4108 17.4695 28.6527 17.2449 25.7635H29.152V25.7558ZM29.152 35.8178V45.0014C27.0603 43.2063 23.8376 40.1322 21.2656 36.2877C23.7601 36.0181 26.4173 35.8563 29.152 35.8178ZM31.8557 44.9937V35.8178C34.5672 35.8563 37.2167 36.0258 39.7267 36.3031C37.1547 40.1399 33.9474 43.2063 31.8557 45.0014V44.9937ZM31.8557 33.2984V25.7481H43.7629C43.5305 28.645 42.5389 31.4031 41.1676 33.9148C38.2393 33.5527 35.1017 33.337 31.8557 33.2907V33.2984ZM31.8557 23.2365V15.6862C35.1017 15.6399 38.2393 15.4242 41.1676 15.0621C42.5389 17.5737 43.5382 20.3396 43.7629 23.2288H31.8557V23.2365ZM31.8557 13.1745V3.99859C33.9474 5.79371 37.1547 8.86006 39.7267 12.6969C37.2167 12.9742 34.5672 13.136 31.8557 13.1822V13.1745ZM34.389 2.73506C41.2064 3.49009 47.2413 6.21745 51.5409 10.1544C49.1548 11.0635 46.1025 11.7954 42.6706 12.3116C40.1063 8.17437 36.7828 4.83836 34.389 2.73506ZM18.3217 12.3347C14.8898 11.8186 11.8529 11.0866 9.44361 10.1698C13.7432 6.21745 19.7859 3.49009 26.6187 2.72736C24.2249 4.83836 20.8937 8.18208 18.3294 12.327L18.3217 12.3347ZM17.0124 14.6769C15.6877 17.3041 14.7348 20.1855 14.5257 23.2365H2.75019C3.04458 19.1377 4.76441 15.3395 7.52235 12.1421C10.0556 13.2053 13.3016 14.0682 17.0124 14.6769ZM14.5257 25.7558C14.7348 28.8068 15.6877 31.6882 17.0124 34.3154C13.3094 34.9241 10.0634 35.7792 7.52235 36.8502C4.76441 33.6528 3.04458 29.8546 2.75019 25.7558H14.5179H14.5257ZM18.3217 36.6575C20.8937 40.8025 24.2172 44.1462 26.611 46.2572C19.7781 45.4945 13.7355 42.7671 9.43587 38.8148C11.8529 37.898 14.882 37.166 18.3139 36.6498L18.3217 36.6575ZM42.6628 36.6807C46.1025 37.1969 49.1471 37.9365 51.5331 38.8379C47.2336 42.7748 41.1986 45.5022 34.3813 46.2572C36.7751 44.1462 40.0908 40.8102 42.6628 36.6807ZM43.9876 34.3231C45.32 31.6882 46.2729 28.8068 46.4821 25.7481H58.2498C57.9554 29.8546 56.2278 33.6605 53.4622 36.8656C50.9366 35.7947 47.6906 34.9318 43.9876 34.3231ZM46.4821 23.2365C46.2729 20.1855 45.32 17.2964 43.9876 14.6615C47.6906 14.0528 50.9289 13.1899 53.4622 12.119C56.2278 15.3241 57.9554 19.13 58.2498 23.2365H46.4821Z" fill="white"/>
</svg>
